Coordinates
version=1
nRows=20
nColumns=34
inDegrees=yes

Units are S.I. units (second, meters, Newtons, ...)
If the header above contains a line with 'inDegrees', this indicates whether rotational values are in degrees (yes) or radians (no).

endheader
time	pelvis_tilt	pelvis_list	pelvis_rotation	pelvis_tx	pelvis_ty	pelvis_tz	hip_flexion_r	hip_adduction_r	hip_rotation_r	knee_angle_r	ankle_angle_r	subtalar_angle_r	mtp_angle_r	hip_flexion_l	hip_adduction_l	hip_rotation_l	knee_angle_l	ankle_angle_l	subtalar_angle_l	mtp_angle_l	lumbar_extension	lumbar_bending	lumbar_rotation	arm_flex_r	arm_add_r	arm_rot_r	elbow_flex_r	pro_sup_r	arm_flex_l	arm_add_l	arm_rot_l	elbow_flex_l	pro_sup_l
     12.94166670	    -11.21533741	      0.46356532	      1.45234261	      1.39433197	      1.05881889	     -0.59988440	      8.06069592	      3.16526537	     -3.98560505	     13.42043871	      0.36104086	    -16.04975479	      0.00000000	      6.86993703	      1.21955226	     -1.09771713	     12.88471310	      0.67680132	    -12.82420756	      0.00000000	     -2.91215479	      0.08707026	     -2.01887908	     -6.57642788	     -1.83224026	    -10.73073753	     40.33162828	    102.99922741	    -11.37320395	     -4.01120588	    -13.48583102	     33.59423118	    111.16666006
     12.95000000	    -11.28294564	      0.51837609	      1.47293967	      1.39697468	      1.05702594	     -0.59948922	      8.14472691	      3.09716142	     -3.96727785	     13.72202351	      1.82578251	    -15.49415281	      0.00000000	      7.78205485	      1.30795040	     -0.05216192	     14.57886652	      1.04896364	    -14.20696476	      0.00000000	     -2.56528551	      0.14165385	     -2.01456854	     -7.42080269	     -2.16982248	     -9.99937191	     42.57733622	    103.11568533	    -12.03132647	     -3.84068376	    -13.62115367	     34.36670089	    110.88735222
     12.95833330	    -10.94510536	      0.59800903	      1.43788118	      1.39835546	      1.05609251	     -0.59852436	      7.68255744	      3.12554267	     -3.41012412	     13.82821382	      2.78274371	    -15.62891122	      0.00000000	      8.36448417	      1.35247348	      0.47075153	     16.43948330	      1.77784681	    -14.77685264	      0.00000000	     -2.65207480	      0.12727006	     -1.92794386	     -7.46864112	     -2.13725963	     -9.84328124	     42.96092418	    103.13320680	    -12.20988796	     -3.89952492	    -13.66423425	     34.40172737	    110.82707846
     12.96666670	    -10.80109250	      0.55711152	      1.42838165	      1.40386862	      1.05513376	     -0.59811338	      7.30552442	      3.18471328	     -3.46099784	     13.95946430	      3.77265398	    -15.10204776	      0.00000000	      9.05509681	      1.36059090	      1.28101317	     18.39737366	      2.23629040	    -15.76313411	      0.00000000	     -2.40597953	      0.33659701	     -1.95229762	     -8.31309132	     -2.56603273	     -9.06992695	     45.35197897	    103.19773841	    -12.91948120	     -3.65109782	    -13.84169961	     34.93695934	    110.51596839
     12.97500000	    -10.56595414	      0.49981900	      1.28321867	      1.40243290	      1.05472514	     -0.59720698	      6.85650320	      3.35315328	     -3.24368399	     13.97201947	      4.45319228	    -15.06201756	      0.00000000	      9.85291039	      1.33140124	      1.87832689	     20.56566058	      2.76160364	    -16.73805721	      0.00000000	     -2.40836169	      0.54543017	     -1.83108110	     -8.60601758	     -2.84055889	     -8.46601124	     46.82888941	    103.22756908	    -13.21434719	     -3.53558363	    -13.96442519	     35.07841265	    110.22086295
     12.98333330	    -10.21953791	      0.52588852	      0.98755214	      1.40877014	      1.05763142	     -0.59751844	      5.94919549	      3.35325835	     -3.41720669	     13.51555745	      3.87717108	    -15.10104583	      0.00000000	     10.40771501	      1.39334776	      2.29785373	     22.51334533	      2.88168910	    -17.42836311	      0.00000000	     -2.40773109	      0.70705606	     -1.69068947	     -8.78853042	     -3.11004138	     -8.01165941	     47.81425994	    103.23663967	    -13.61429391	     -3.29766042	    -14.05828642	     35.01971324	    110.01198531
     12.99166670	    -10.05608702	      0.46104655	      0.73476751	      1.40768905	      1.05589966	     -0.59587820	      5.56965116	      3.51362602	     -3.53419711	     13.42607637	      3.69568712	    -15.41337384	      0.00000000	     11.30376393	      1.35910910	      2.69442231	     24.75726083	      2.89517202	    -18.22027796	      0.00000000	     -2.32986877	      0.91772520	     -1.45195830	     -9.08643209	     -3.48232343	     -7.21956576	     49.56021272	    103.24432526	    -13.90949164	     -3.16859626	    -14.20886885	     35.18728629	    109.69790057
     13.00000000	     -9.77875418	      0.36215150	      0.38899261	      1.40446288	      1.05508715	     -0.59518910	      5.36968935	      3.63124996	     -3.55385862	     13.52059296	      2.87426419	    -15.79793434	      0.00000000	     12.40278250	      1.29976417	      2.97721195	     27.06637280	      2.43138428	    -19.09680725	      0.00000000	     -2.59371198	      1.21014571	     -1.24309075	     -8.98649539	     -3.84045900	     -6.49445172	     50.96918226	    103.22677618	    -14.01732253	     -3.01628546	    -14.29826434	     35.36571816	    109.39897711
     13.00833330	     -9.53887426	      0.46544546	      0.08253418	      1.40873795	      1.05279323	     -0.59419767	      5.09290362	      3.50498345	     -3.71449505	     13.89613662	      2.35553991	    -15.73865063	      0.00000000	     13.24307840	      1.40010740	      3.02466806	     29.07614211	      2.70148405	    -19.46347890	      0.00000000	     -2.83655730	      1.17078805	     -1.01127435	     -8.61635882	     -3.83787279	     -6.27092351	     51.45228915	    103.22137889	    -14.07165546	     -3.06775540	    -14.33250628	     35.32637496	    109.32424790
     13.01666670	     -9.60981624	      0.33747519	     -0.06879436	      1.40662479	      1.05319565	     -0.59283175	      5.23904369	      3.69980325	     -3.52737638	     14.27383473	      2.79995533	    -16.06757070	      0.00000000	     14.69390837	      1.26226466	      3.23328618	     31.50989875	      2.84212020	    -20.04273220	      0.00000000	     -2.76687446	      1.49256227	     -0.84968957	     -8.84493122	     -4.39713089	     -5.23703886	     53.63859624	    103.19220142	    -14.16892157	     -2.94109351	    -14.35780019	     35.43834822	    108.98825872
     13.02500000	     -9.34137614	      0.50815352	     -0.22645650	      1.40873290	      1.05209331	     -0.59189800	      4.89751533	      3.59089201	     -3.11817293	     14.38056131	      3.19156508	    -15.96437667	      0.00000000	     15.71708991	      1.39338258	      3.20759469	     33.58624851	      3.24719896	    -20.45744998	      0.00000000	     -3.07633920	      1.37649058	     -0.69696933	     -8.39951860	     -4.37475790	     -5.04976125	     54.10262940	    103.17723298	    -14.10598733	     -3.02976564	    -14.37127170	     35.41208037	    108.91949281
     13.03333330	     -9.40529198	      0.50625023	     -0.38277119	      1.41261063	      1.04907169	     -0.59095781	      4.84313577	      3.65040454	     -2.91822871	     14.23337171	      4.67954461	    -15.08211399	      0.00000000	     17.03751174	      1.27820135	      2.87976075	     35.83303517	      3.93153107	    -20.68383178	      0.00000000	     -2.78597031	      1.55187315	     -0.57180351	     -8.76091318	     -4.92542063	     -4.00981116	     56.33743770	    103.10145232	    -14.40898566	     -2.88010074	    -14.34559521	     35.57888344	    108.56526887
     13.04166670	     -9.18083355	      0.72480446	     -0.51751996	      1.41330995	      1.05088910	     -0.59023755	      4.28434873	      3.45278099	     -2.77706106	     14.13708140	      4.34378022	    -14.60066577	      0.00000000	     17.98124157	      1.50625992	      2.77278950	     37.76495437	      4.25195484	    -21.06048926	      0.00000000	     -2.85139505	      1.36502132	     -0.35670240	     -8.38949847	     -4.82702975	     -3.81354979	     56.81560437	    103.07751903	    -14.47174517	     -2.99112094	    -14.36123072	     35.51813244	    108.48891644
     13.05000000	     -9.27424566	      0.64166537	     -0.73942030	      1.41206774	      1.04857422	     -0.58986183	      4.57376965	      3.57763538	     -2.85302581	     14.52568900	      5.19394789	    -13.96229220	      0.00000000	     19.57220408	      1.43893396	      2.70444269	     40.09344887	      5.38341361	    -21.28645584	      0.00000000	     -2.78741114	      1.67397248	     -0.13125546	     -8.56112881	     -5.42355544	     -2.86722845	     59.12949131	    102.94557805	    -14.57572963	     -2.86501818	    -14.30215916	     35.68741227	    108.10252817
     13.05833330	     -9.20838395	      0.52376242	     -1.17467804	      1.40740752	      1.04934197	     -0.58864708	      4.76627061	      3.68481708	     -2.80848067	     14.71341521	      4.95002253	    -13.80502592	      0.00000000	     21.05405393	      1.27596079	      2.46211948	     42.26846242	      6.21598429	    -21.60181752	      0.00000000	     -3.06116249	      1.93053400	      0.33024135	     -8.17679179	     -5.84750821	     -2.27029816	     60.37215926	    102.79260622	    -14.44579616	     -2.76219791	    -14.23923631	     35.76309492	    107.76109319
     13.06666670	     -9.28681204	      0.53373321	     -1.61975727	      1.41314942	      1.04790136	     -0.58805549	      4.97458074	      3.67380767	     -2.67094297	     14.92583798	      4.85449149	    -13.31406719	      0.00000000	     22.35088534	      1.18924887	      2.08581354	     44.20037618	      6.98187660	    -21.63922153	      0.00000000	     -2.91224600	      2.04176397	      0.85968355	     -8.05670406	     -6.21741525	     -1.64806713	     61.69780899	    102.60318008	    -14.53495148	     -2.70255712	    -14.17067787	     35.65121081	    107.38532425
     13.07500000	     -9.33878489	      0.50125887	     -2.15419657	      1.41236988	      1.04897900	     -0.58682125	      5.25898766	      3.67368026	     -2.53594072	     15.32425041	      4.67839792	    -13.10037455	      0.00000000	     23.51516877	      1.05587970	      1.71081405	     45.43191173	      7.89360004	    -21.67729426	      0.00000000	     -2.94817057	      2.25635339	      1.37877679	     -7.77471917	     -6.55424849	     -1.21736161	     62.79558428	    102.44124836	    -14.61401639	     -2.54000638	    -14.08022854	     35.55562176	    107.09450927
     13.08333330	     -9.35614055	      0.65550129	     -2.26971178	      1.41509161	      1.05311891	     -0.58725051	      5.15275195	      3.44892573	     -2.79015724	     15.04923492	      3.81106691	    -12.75438113	      0.00000000	     24.48445716	      1.15419562	      1.37412978	     46.16231280	      8.02959011	    -21.71413484	      0.00000000	     -3.02842702	      2.10127101	      1.60340486	     -7.41277972	     -6.56453666	     -1.06591076	     63.30741196	    102.37879956	    -14.53624205	     -2.66721688	    -14.08094705	     35.47309497	    106.98951469
     13.09166670	     -9.59952440	      0.54958003	     -2.36941246	      1.41463110	      1.05286872	     -0.58681415	      5.36488354	      3.53453176	     -3.04222200	     14.66784976	      2.57270654	    -12.73701235	      0.00000000	     25.88944271	      0.93609166	      0.98486477	     46.91281762	      7.72504190	    -21.63141057	      0.00000000	     -2.88313350	      2.42006221	      1.86314485	     -7.49916011	     -7.05733624	     -0.57507901	     64.70776417	    102.17717165	    -14.45514698	     -2.50514753	    -13.93359343	     35.13934290	    106.66734135
     13.10000000	     -9.60795321	      0.64887338	     -2.53479173	      1.41531855	      1.05163651	     -0.58535952	      5.28454695	      3.47384510	     -2.58411837	     14.50475323	      2.57263809	    -12.35102844	      0.00000000	     26.79884615	      0.80998790	      0.51841258	     47.51004368	      8.04486013	    -21.67627946	      0.00000000	     -2.75484838	      2.29529689	      2.20419941	     -6.95301786	     -7.10812980	     -0.35268707	     65.46390610	    102.04181346	    -14.43066369	     -2.61536056	    -13.88862093	     34.87052360	    106.46232662
